<mxfile host="app.diagrams.net" modified="2024-03-19T17:19:05.519Z" agent="Mozilla/5.0 (Windows NT 10.0; Win64; x64) AppleWebKit/537.36 (KHTML, like Gecko) Chrome/122.0.0.0 Safari/537.36" etag="I0HHJtB6es9nRN7JRzNa" version="24.0.7" type="github">
  <diagram name="Page-1" id="6SN2vdMOYJN5gK-s-qSi">
    <mxGraphModel dx="1909" dy="1138" grid="1" gridSize="10" guides="1" tooltips="1" connect="1" arrows="1" fold="1" page="1" pageScale="1" pageWidth="850" pageHeight="1100" math="0" shadow="0">
      <root>
        <mxCell id="0" />
        <mxCell id="1" parent="0" />
        <mxCell id="4gd2Sefvb9_Fo2izfbSA-14" style="edgeStyle=orthogonalEdgeStyle;rounded=0;orthogonalLoop=1;jettySize=auto;html=1;entryX=0;entryY=0.5;entryDx=0;entryDy=0;" edge="1" parent="1" source="4gd2Sefvb9_Fo2izfbSA-2" target="4gd2Sefvb9_Fo2izfbSA-12">
          <mxGeometry relative="1" as="geometry" />
        </mxCell>
        <mxCell id="4gd2Sefvb9_Fo2izfbSA-15" value="Update request" style="edgeLabel;html=1;align=center;verticalAlign=middle;resizable=0;points=[];" vertex="1" connectable="0" parent="4gd2Sefvb9_Fo2izfbSA-14">
          <mxGeometry x="-0.2183" y="-4" relative="1" as="geometry">
            <mxPoint as="offset" />
          </mxGeometry>
        </mxCell>
        <mxCell id="4gd2Sefvb9_Fo2izfbSA-2" value="Controller" style="swimlane;fontStyle=0;childLayout=stackLayout;horizontal=1;startSize=30;horizontalStack=0;resizeParent=1;resizeParentMax=0;resizeLast=0;collapsible=1;marginBottom=0;whiteSpace=wrap;html=1;fillColor=#dae8fc;strokeColor=#6c8ebf;" vertex="1" parent="1">
          <mxGeometry x="140" y="290" width="140" height="130" as="geometry" />
        </mxCell>
        <mxCell id="4gd2Sefvb9_Fo2izfbSA-3" value="App-specific logic" style="text;strokeColor=none;fillColor=none;align=left;verticalAlign=middle;spacingLeft=4;spacingRight=4;overflow=hidden;points=[[0,0.5],[1,0.5]];portConstraint=eastwest;rotatable=0;whiteSpace=wrap;html=1;" vertex="1" parent="4gd2Sefvb9_Fo2izfbSA-2">
          <mxGeometry y="30" width="140" height="30" as="geometry" />
        </mxCell>
        <mxCell id="4gd2Sefvb9_Fo2izfbSA-4" value="Data validation" style="text;strokeColor=none;fillColor=none;align=left;verticalAlign=middle;spacingLeft=4;spacingRight=4;overflow=hidden;points=[[0,0.5],[1,0.5]];portConstraint=eastwest;rotatable=0;whiteSpace=wrap;html=1;" vertex="1" parent="4gd2Sefvb9_Fo2izfbSA-2">
          <mxGeometry y="60" width="140" height="30" as="geometry" />
        </mxCell>
        <mxCell id="4gd2Sefvb9_Fo2izfbSA-5" value="HTTP / query request processing" style="text;strokeColor=none;fillColor=none;align=left;verticalAlign=middle;spacingLeft=4;spacingRight=4;overflow=hidden;points=[[0,0.5],[1,0.5]];portConstraint=eastwest;rotatable=0;whiteSpace=wrap;html=1;" vertex="1" parent="4gd2Sefvb9_Fo2izfbSA-2">
          <mxGeometry y="90" width="140" height="40" as="geometry" />
        </mxCell>
        <mxCell id="4gd2Sefvb9_Fo2izfbSA-32" style="edgeStyle=orthogonalEdgeStyle;rounded=0;orthogonalLoop=1;jettySize=auto;html=1;exitX=1;exitY=0.25;exitDx=0;exitDy=0;entryX=1;entryY=0.5;entryDx=0;entryDy=0;" edge="1" parent="1" source="4gd2Sefvb9_Fo2izfbSA-6" target="4gd2Sefvb9_Fo2izfbSA-27">
          <mxGeometry relative="1" as="geometry" />
        </mxCell>
        <mxCell id="4gd2Sefvb9_Fo2izfbSA-33" style="edgeStyle=orthogonalEdgeStyle;rounded=0;orthogonalLoop=1;jettySize=auto;html=1;exitX=1;exitY=0.25;exitDx=0;exitDy=0;entryX=1;entryY=0.5;entryDx=0;entryDy=0;" edge="1" parent="1" source="4gd2Sefvb9_Fo2izfbSA-6" target="4gd2Sefvb9_Fo2izfbSA-25">
          <mxGeometry relative="1" as="geometry">
            <Array as="points">
              <mxPoint x="610" y="313" />
              <mxPoint x="610" y="155" />
            </Array>
          </mxGeometry>
        </mxCell>
        <mxCell id="4gd2Sefvb9_Fo2izfbSA-34" style="edgeStyle=orthogonalEdgeStyle;rounded=0;orthogonalLoop=1;jettySize=auto;html=1;exitX=1;exitY=0.25;exitDx=0;exitDy=0;entryX=1;entryY=0.5;entryDx=0;entryDy=0;" edge="1" parent="1" source="4gd2Sefvb9_Fo2izfbSA-6" target="4gd2Sefvb9_Fo2izfbSA-26">
          <mxGeometry relative="1" as="geometry">
            <Array as="points">
              <mxPoint x="610" y="313" />
              <mxPoint x="610" y="205" />
            </Array>
          </mxGeometry>
        </mxCell>
        <mxCell id="4gd2Sefvb9_Fo2izfbSA-6" value="View: Screens" style="swimlane;fontStyle=0;childLayout=stackLayout;horizontal=1;startSize=30;horizontalStack=0;resizeParent=1;resizeParentMax=0;resizeLast=0;collapsible=1;marginBottom=0;whiteSpace=wrap;html=1;fillColor=#dae8fc;strokeColor=#6c8ebf;" vertex="1" parent="1">
          <mxGeometry x="410" y="290" width="140" height="90" as="geometry" />
        </mxCell>
        <mxCell id="4gd2Sefvb9_Fo2izfbSA-7" value="Dynamic page generation (screens)" style="text;strokeColor=none;fillColor=none;align=left;verticalAlign=middle;spacingLeft=4;spacingRight=4;overflow=hidden;points=[[0,0.5],[1,0.5]];portConstraint=eastwest;rotatable=0;whiteSpace=wrap;html=1;" vertex="1" parent="4gd2Sefvb9_Fo2izfbSA-6">
          <mxGeometry y="30" width="140" height="30" as="geometry" />
        </mxCell>
        <mxCell id="4gd2Sefvb9_Fo2izfbSA-8" value="User Input Management" style="text;strokeColor=none;fillColor=none;align=left;verticalAlign=middle;spacingLeft=4;spacingRight=4;overflow=hidden;points=[[0,0.5],[1,0.5]];portConstraint=eastwest;rotatable=0;whiteSpace=wrap;html=1;" vertex="1" parent="4gd2Sefvb9_Fo2izfbSA-6">
          <mxGeometry y="60" width="140" height="30" as="geometry" />
        </mxCell>
        <mxCell id="4gd2Sefvb9_Fo2izfbSA-10" value="Model : Firebase" style="swimlane;fontStyle=0;childLayout=stackLayout;horizontal=1;startSize=30;horizontalStack=0;resizeParent=1;resizeParentMax=0;resizeLast=0;collapsible=1;marginBottom=0;whiteSpace=wrap;html=1;fillColor=#dae8fc;strokeColor=#6c8ebf;" vertex="1" parent="1">
          <mxGeometry x="340" y="460" width="140" height="120" as="geometry" />
        </mxCell>
        <mxCell id="4gd2Sefvb9_Fo2izfbSA-11" value="Business Logic" style="text;strokeColor=none;fillColor=none;align=left;verticalAlign=middle;spacingLeft=4;spacingRight=4;overflow=hidden;points=[[0,0.5],[1,0.5]];portConstraint=eastwest;rotatable=0;whiteSpace=wrap;html=1;" vertex="1" parent="4gd2Sefvb9_Fo2izfbSA-10">
          <mxGeometry y="30" width="140" height="30" as="geometry" />
        </mxCell>
        <mxCell id="4gd2Sefvb9_Fo2izfbSA-12" value="DB (Firestore)" style="text;strokeColor=none;fillColor=none;align=left;verticalAlign=middle;spacingLeft=4;spacingRight=4;overflow=hidden;points=[[0,0.5],[1,0.5]];portConstraint=eastwest;rotatable=0;whiteSpace=wrap;html=1;" vertex="1" parent="4gd2Sefvb9_Fo2izfbSA-10">
          <mxGeometry y="60" width="140" height="30" as="geometry" />
        </mxCell>
        <mxCell id="4gd2Sefvb9_Fo2izfbSA-13" value="Auth (Firebase Auth)" style="text;strokeColor=none;fillColor=none;align=left;verticalAlign=middle;spacingLeft=4;spacingRight=4;overflow=hidden;points=[[0,0.5],[1,0.5]];portConstraint=eastwest;rotatable=0;whiteSpace=wrap;html=1;" vertex="1" parent="4gd2Sefvb9_Fo2izfbSA-10">
          <mxGeometry y="90" width="140" height="30" as="geometry" />
        </mxCell>
        <mxCell id="4gd2Sefvb9_Fo2izfbSA-16" style="edgeStyle=orthogonalEdgeStyle;rounded=0;orthogonalLoop=1;jettySize=auto;html=1;exitX=0.75;exitY=0;exitDx=0;exitDy=0;entryX=0.254;entryY=1.127;entryDx=0;entryDy=0;entryPerimeter=0;" edge="1" parent="1" source="4gd2Sefvb9_Fo2izfbSA-10" target="4gd2Sefvb9_Fo2izfbSA-8">
          <mxGeometry relative="1" as="geometry">
            <Array as="points">
              <mxPoint x="445" y="420" />
              <mxPoint x="446" y="420" />
            </Array>
          </mxGeometry>
        </mxCell>
        <mxCell id="4gd2Sefvb9_Fo2izfbSA-17" value="Change notification" style="edgeLabel;html=1;align=center;verticalAlign=middle;resizable=0;points=[];" vertex="1" connectable="0" parent="4gd2Sefvb9_Fo2izfbSA-16">
          <mxGeometry x="-0.2493" relative="1" as="geometry">
            <mxPoint x="5" y="-11" as="offset" />
          </mxGeometry>
        </mxCell>
        <mxCell id="4gd2Sefvb9_Fo2izfbSA-18" style="edgeStyle=orthogonalEdgeStyle;rounded=0;orthogonalLoop=1;jettySize=auto;html=1;exitX=1;exitY=0.5;exitDx=0;exitDy=0;entryX=1;entryY=0.5;entryDx=0;entryDy=0;" edge="1" parent="1" source="4gd2Sefvb9_Fo2izfbSA-8" target="4gd2Sefvb9_Fo2izfbSA-12">
          <mxGeometry relative="1" as="geometry" />
        </mxCell>
        <mxCell id="4gd2Sefvb9_Fo2izfbSA-20" value="Refresh request" style="edgeLabel;html=1;align=center;verticalAlign=middle;resizable=0;points=[];" vertex="1" connectable="0" parent="4gd2Sefvb9_Fo2izfbSA-18">
          <mxGeometry x="-0.1829" y="-3" relative="1" as="geometry">
            <mxPoint as="offset" />
          </mxGeometry>
        </mxCell>
        <mxCell id="4gd2Sefvb9_Fo2izfbSA-21" style="edgeStyle=orthogonalEdgeStyle;rounded=0;orthogonalLoop=1;jettySize=auto;html=1;exitX=0;exitY=0.5;exitDx=0;exitDy=0;entryX=1;entryY=0.5;entryDx=0;entryDy=0;" edge="1" parent="1" source="4gd2Sefvb9_Fo2izfbSA-8" target="4gd2Sefvb9_Fo2izfbSA-4">
          <mxGeometry relative="1" as="geometry" />
        </mxCell>
        <mxCell id="4gd2Sefvb9_Fo2izfbSA-22" value="User events" style="edgeLabel;html=1;align=center;verticalAlign=middle;resizable=0;points=[];" vertex="1" connectable="0" parent="4gd2Sefvb9_Fo2izfbSA-21">
          <mxGeometry x="0.3111" y="2" relative="1" as="geometry">
            <mxPoint x="19" y="-2" as="offset" />
          </mxGeometry>
        </mxCell>
        <mxCell id="4gd2Sefvb9_Fo2izfbSA-23" style="edgeStyle=orthogonalEdgeStyle;rounded=0;orthogonalLoop=1;jettySize=auto;html=1;exitX=1;exitY=0.5;exitDx=0;exitDy=0;entryX=0;entryY=0.5;entryDx=0;entryDy=0;" edge="1" parent="1" source="4gd2Sefvb9_Fo2izfbSA-3" target="4gd2Sefvb9_Fo2izfbSA-7">
          <mxGeometry relative="1" as="geometry" />
        </mxCell>
        <mxCell id="4gd2Sefvb9_Fo2izfbSA-24" value="Screen to display" style="edgeLabel;html=1;align=center;verticalAlign=middle;resizable=0;points=[];" vertex="1" connectable="0" parent="4gd2Sefvb9_Fo2izfbSA-23">
          <mxGeometry x="-0.3354" y="-1" relative="1" as="geometry">
            <mxPoint x="27" y="-1" as="offset" />
          </mxGeometry>
        </mxCell>
        <mxCell id="4gd2Sefvb9_Fo2izfbSA-36" style="edgeStyle=orthogonalEdgeStyle;rounded=0;orthogonalLoop=1;jettySize=auto;html=1;exitX=0;exitY=0.5;exitDx=0;exitDy=0;" edge="1" parent="1" source="4gd2Sefvb9_Fo2izfbSA-25">
          <mxGeometry relative="1" as="geometry">
            <mxPoint x="210" y="290" as="targetPoint" />
          </mxGeometry>
        </mxCell>
        <mxCell id="4gd2Sefvb9_Fo2izfbSA-25" value="Browser" style="ellipse;whiteSpace=wrap;html=1;" vertex="1" parent="1">
          <mxGeometry x="425" y="130" width="160" height="50" as="geometry" />
        </mxCell>
        <mxCell id="4gd2Sefvb9_Fo2izfbSA-35" style="edgeStyle=orthogonalEdgeStyle;rounded=0;orthogonalLoop=1;jettySize=auto;html=1;exitX=0;exitY=0.5;exitDx=0;exitDy=0;entryX=0.5;entryY=0;entryDx=0;entryDy=0;" edge="1" parent="1" source="4gd2Sefvb9_Fo2izfbSA-26" target="4gd2Sefvb9_Fo2izfbSA-2">
          <mxGeometry relative="1" as="geometry" />
        </mxCell>
        <mxCell id="4gd2Sefvb9_Fo2izfbSA-26" value="iOS App" style="ellipse;whiteSpace=wrap;html=1;" vertex="1" parent="1">
          <mxGeometry x="425" y="180" width="160" height="50" as="geometry" />
        </mxCell>
        <mxCell id="4gd2Sefvb9_Fo2izfbSA-37" style="edgeStyle=orthogonalEdgeStyle;rounded=0;orthogonalLoop=1;jettySize=auto;html=1;exitX=0;exitY=0.5;exitDx=0;exitDy=0;" edge="1" parent="1" source="4gd2Sefvb9_Fo2izfbSA-27">
          <mxGeometry relative="1" as="geometry">
            <mxPoint x="210" y="290" as="targetPoint" />
          </mxGeometry>
        </mxCell>
        <mxCell id="4gd2Sefvb9_Fo2izfbSA-27" value="Android App" style="ellipse;whiteSpace=wrap;html=1;" vertex="1" parent="1">
          <mxGeometry x="430" y="80" width="160" height="50" as="geometry" />
        </mxCell>
      </root>
    </mxGraphModel>
  </diagram>
</mxfile>
